<svg xmlns="http://www.w3.org/2000/svg" version="1.1" xmlns:xlink="http://www.w3.org/1999/xlink" xmlns:svgjs="http://svgjs.dev/svgjs" width="1440" height="560" preserveAspectRatio="none" viewBox="0 0 1440 560"><g mask="url(&quot;#SvgjsMask1001&quot;)" fill="none"><rect width="1440" height="560" x="0" y="0" fill="rgba(2, 57, 140, 1)"></rect><path d="M0,384.525C72.643,383.444,141.962,355.143,201.264,313.173C258.847,272.42,306.548,217.262,330.229,150.81C352.867,87.283,342.973,18.72,329.762,-47.413C317.146,-110.568,291.775,-168.237,255.82,-221.669C215.724,-281.254,178.927,-354.455,109.87,-374.184C40.856,-393.9,-26.577,-345.021,-94.472,-321.742C-159.061,-299.596,-230.692,-290.099,-278.252,-241.107C-326.944,-190.95,-345.297,-120.246,-356.988,-51.327C-368.915,18.983,-372.991,92.002,-345.951,157.991C-318.338,225.38,-266.078,279.326,-205.151,319.222C-143.872,359.349,-73.24,385.615,0,384.525" fill="#1b2e6c"></path><path d="M1440 1205.769C1569.345 1204.567 1702.694 1207.674 1815.085 1143.643 1930.472 1077.905 2027.3339999999998 973.3679999999999 2069.1549999999997 847.326 2109.2870000000003 726.376 2057.0969999999998 600.007 2037.233 474.131 2017.676 350.201 2051.024 194.01299999999998 1953.588 114.97300000000001 1853.539 33.81299999999999 1702.651 118.50999999999999 1575.253 99.37099999999998 1471.69 83.81200000000001 1382.436-6.06899999999996 1279.597 13.716999999999985 1174.551 33.92700000000002 1100.906 124.64600000000002 1029.567 204.358 957.223 285.193 878.743 369.717 864.719 477.28700000000003 850.757 584.378 924.142 678.114 954.28 781.821 990.72 907.212 962.029 1064.7930000000001 1060.406 1150.659 1158.724 1236.473 1309.505 1206.982 1440 1205.769" fill="#2944a2"></path></g><defs><mask id="SvgjsMask1001"><rect width="1440" height="560" fill="#ffffff"></rect></mask></defs></svg>