<svg xmlns="http://www.w3.org/2000/svg" viewBox="0 0 24 24">
                                    <path fill="currentColor"
                                        d="m17 10.82-3.09 1.644L15.09 17 12 14.13 8.91 17l1.18-4.536L7 10.82l3.82-.188L12 7l1.18 3.632zM13 4V2a1 1 0 0 0-2 0v2a1 1 0 0 0 2 0zm-2 16v2a1 1 0 0 0 2 0v-2a1 1 0 0 0-2 0zm8.778-15.778a1 1 0 0 0-1.414 0L16.95 5.636a1 1 0 1 0 1.414 1.414l1.414-1.414a1 1 0 0 0 0-1.414zM4.222 19.778a1 1 0 0 0 1.414 0l1.414-1.414a1 1 0 0 0-1.414-1.414l-1.414 1.414a1 1 0 0 0 0 1.414zM22 11h-2a1 1 0 0 0 0 2h2a1 1 0 0 0 0-2zM2 13h2a1 1 0 0 0 0-2H2a1 1 0 0 0 0 2zm16.364 6.778a1 1 0 0 0 1.414-1.414l-1.414-1.414a1 1 0 0 0-1.414 1.414zM7.05 7.05a1 1 0 0 0 0-1.414L5.636 4.222a1 1 0 0 0-1.414 1.414L5.636 7.05a1 1 0 0 0 1.414 0z" />
                                </svg>